<svg width="20" height="21" viewBox="0 0 20 21" fill="none" xmlns="http://www.w3.org/2000/svg">
<g clip-path="url(#clip0_4218_766)">
<path d="M19.5517 16.3057L16.4631 13.2167C15.8478 12.6039 14.829 12.6226 14.1924 13.2594L12.6363 14.8152C12.538 14.761 12.4362 14.7044 12.3293 14.6444C11.3466 14.0999 10.0017 13.3536 8.5864 11.9373C7.16695 10.518 6.41999 9.17103 5.87384 8.18774C5.81621 8.08357 5.76099 7.98313 5.70647 7.88775L6.75083 6.84494L7.26428 6.33085C7.9019 5.69306 7.91948 4.67455 7.30571 4.06003L4.21703 0.970661C3.60325 0.357004 2.584 0.37562 1.94638 1.01341L1.07588 1.88891L1.09967 1.91252C0.807779 2.28497 0.563868 2.71453 0.382356 3.17776C0.215037 3.6187 0.110865 4.03946 0.0632315 4.4611C-0.344609 7.84219 1.20045 10.9323 5.39355 15.1254C11.1897 20.9211 15.8606 20.4833 16.0621 20.4619C16.501 20.4095 16.9216 20.3046 17.349 20.1386C17.8082 19.9592 18.2375 19.7157 18.6097 19.4244L18.6287 19.4413L19.5106 18.5777C20.1469 17.9401 20.1652 16.9212 19.5517 16.3057Z" fill="#D71629"/>
</g>
<defs>
<clipPath id="clip0_4218_766">
<rect width="20" height="20" fill="white" transform="translate(0 0.5)"/>
</clipPath>
</defs>
</svg>
