<svg width="16" height="16" viewBox="0 0 16 16" fill="none" xmlns="http://www.w3.org/2000/svg">
<g clip-path="url(#clip0_4220_291)">
<path d="M15.4888 3.73143C15.4888 3.71429 15.5006 3.69761 15.4998 3.68066L10.9224 8.09132L15.4944 12.3611C15.497 12.3306 15.4888 12.2998 15.4888 12.2687V3.73143Z" fill="#D71629"/>
<path d="M10.2237 8.77002L8.35506 10.5679C8.2605 10.6589 8.13837 10.7045 8.01618 10.7045C7.89653 10.7045 7.77688 10.6608 7.68297 10.5733L5.81939 8.83675L1.21753 13.2724C1.32942 13.3126 1.44953 13.3439 1.57531 13.3439H14.4571C14.6439 13.3439 14.8191 13.287 14.9714 13.2021L10.2237 8.77002Z" fill="#D71629"/>
<path d="M8.01075 9.54281L14.9966 2.81337C14.8385 2.71933 14.6544 2.65625 14.457 2.65625H1.57522C1.31826 2.65625 1.0828 2.75602 0.899414 2.90819L8.01075 9.54281Z" fill="#D71629"/>
<path d="M0.5 3.89551V12.2687C0.5 12.3648 0.522092 12.4575 0.546075 12.5461L5.09085 8.16957L0.5 3.89551Z" fill="#D71629"/>
</g>
<defs>
<clipPath id="clip0_4220_291">
<rect width="15" height="15" fill="white" transform="translate(0.5 0.5)"/>
</clipPath>
</defs>
</svg>
