<svg width="15" height="16" viewBox="0 0 15 16" fill="none" xmlns="http://www.w3.org/2000/svg">
<g id="plus-svgrepo-com (3) 2" clip-path="url(#clip0_4242_1471)">
<g id="Group">
<path id="Vector" d="M13.5314 6.26006L8.90721 6.25956L8.90697 1.96859C8.90721 1.15751 8.24945 0.5 7.43837 0.5C6.62754 0.5 5.97003 1.15751 5.97003 1.96859V6.25981L1.46859 6.25956C0.657511 6.25981 0 6.91732 0 7.72815C0.000496985 8.53923 0.657511 9.19649 1.46859 9.19649H5.97003V14.0314C5.97003 14.8432 6.62754 15.5 7.43862 15.5C8.2497 15.5 8.90696 14.8425 8.90721 14.0319V9.19649H13.5319C14.3425 9.19649 15 8.53923 15 7.72865C15.0007 6.91707 14.3425 6.25956 13.5314 6.26006Z" fill="black"/>
</g>
</g>
<defs>
<clipPath id="clip0_4242_1471">
<rect width="15" height="15" fill="white" transform="translate(0 0.5)"/>
</clipPath>
</defs>
</svg>
